<mxfile host="Electron" modified="2024-12-24T12:17:20.009Z" agent="Mozilla/5.0 (Windows NT 10.0; Win64; x64) AppleWebKit/537.36 (KHTML, like Gecko) draw.io/24.5.1 Chrome/124.0.6367.207 Electron/30.0.6 Safari/537.36" etag="9Is0oz9f9TizD0Wes_XS" version="24.5.1" type="device">
  <diagram name="第 1 页" id="QVBIr1oQ65fZIcBnBIKk">
    <mxGraphModel dx="683" dy="407" grid="1" gridSize="10" guides="0" tooltips="1" connect="1" arrows="1" fold="1" page="1" pageScale="1" pageWidth="1920" pageHeight="1200" math="1" shadow="0">
      <root>
        <mxCell id="0" />
        <mxCell id="1" parent="0" />
        <mxCell id="sRjg3EX3xUOvvjhrIUut-145" value="" style="group;strokeColor=none;" parent="1" vertex="1" connectable="0">
          <mxGeometry x="10" y="21" width="563" height="223" as="geometry" />
        </mxCell>
        <mxCell id="sRjg3EX3xUOvvjhrIUut-85" value="&lt;font face=&quot;宋体&quot; style=&quot;font-size: 14px;&quot;&gt;抓取检测子系统&lt;/font&gt;" style="text;html=1;align=center;verticalAlign=middle;whiteSpace=wrap;rounded=0;container=0;" parent="sRjg3EX3xUOvvjhrIUut-145" vertex="1">
          <mxGeometry x="289" y="15" width="108" height="12" as="geometry" />
        </mxCell>
        <mxCell id="sRjg3EX3xUOvvjhrIUut-5" value="" style="endArrow=none;html=1;rounded=0;dashed=1;" parent="sRjg3EX3xUOvvjhrIUut-145" edge="1">
          <mxGeometry width="50" height="50" relative="1" as="geometry">
            <mxPoint x="242" y="176" as="sourcePoint" />
            <mxPoint x="242" as="targetPoint" />
          </mxGeometry>
        </mxCell>
        <mxCell id="sRjg3EX3xUOvvjhrIUut-87" value="&lt;span style=&quot;font-size: 14px;&quot;&gt;&lt;font face=&quot;宋体&quot;&gt;控制子系统&lt;/font&gt;&lt;/span&gt;" style="rounded=1;whiteSpace=wrap;html=1;fillColor=#FFFFFF;strokeColor=#9673a6;dashed=1;container=0;" parent="sRjg3EX3xUOvvjhrIUut-145" vertex="1">
          <mxGeometry x="258" y="135" width="165" height="27" as="geometry" />
        </mxCell>
        <mxCell id="sRjg3EX3xUOvvjhrIUut-140" value="" style="shape=flexArrow;endArrow=classic;html=1;rounded=0;fillColor=#000000;width=1.1764705882352942;endSize=2;endWidth=5.536332179930796;startSize=2;exitX=1;exitY=0.5;exitDx=0;exitDy=0;" parent="sRjg3EX3xUOvvjhrIUut-145" source="sRjg3EX3xUOvvjhrIUut-69" edge="1">
          <mxGeometry width="50" height="50" relative="1" as="geometry">
            <mxPoint x="338" y="218" as="sourcePoint" />
            <mxPoint x="444" y="77" as="targetPoint" />
          </mxGeometry>
        </mxCell>
        <mxCell id="sRjg3EX3xUOvvjhrIUut-141" value="" style="shape=flexArrow;endArrow=classic;html=1;rounded=0;fillColor=#000000;width=1.1764705882352942;endSize=2;endWidth=5.536332179930796;startSize=2;exitX=1.001;exitY=0.478;exitDx=0;exitDy=0;exitPerimeter=0;" parent="sRjg3EX3xUOvvjhrIUut-145" source="sRjg3EX3xUOvvjhrIUut-87" edge="1">
          <mxGeometry width="50" height="50" relative="1" as="geometry">
            <mxPoint x="290" y="226" as="sourcePoint" />
            <mxPoint x="444" y="148" as="targetPoint" />
          </mxGeometry>
        </mxCell>
        <mxCell id="sRjg3EX3xUOvvjhrIUut-30" value="&lt;font face=&quot;宋体&quot; style=&quot;font-size: 14px;&quot;&gt;工作空间&lt;/font&gt;" style="shape=cube;whiteSpace=wrap;html=1;boundedLbl=1;backgroundOutline=1;darkOpacity=0.05;darkOpacity2=0.1;direction=south;fillColor=#bac8d3;strokeColor=#a7b4bd;strokeWidth=1;container=0;" parent="sRjg3EX3xUOvvjhrIUut-145" vertex="1">
          <mxGeometry x="88" y="101" width="120" height="40" as="geometry" />
        </mxCell>
        <mxCell id="sRjg3EX3xUOvvjhrIUut-31" value="" style="shape=cylinder3;whiteSpace=wrap;html=1;boundedLbl=1;backgroundOutline=1;size=2.5283018867924625;direction=west;rotation=60;fillColor=#fad9d5;strokeColor=#ae4132;container=0;" parent="sRjg3EX3xUOvvjhrIUut-145" vertex="1">
          <mxGeometry x="116" y="91" width="10" height="30" as="geometry" />
        </mxCell>
        <mxCell id="sRjg3EX3xUOvvjhrIUut-32" value="" style="shape=cube;whiteSpace=wrap;html=1;boundedLbl=1;backgroundOutline=1;darkOpacity=0.05;darkOpacity2=0.1;direction=south;size=10;fillColor=#e51400;strokeColor=#B20000;fontColor=#ffffff;container=0;" parent="sRjg3EX3xUOvvjhrIUut-145" vertex="1">
          <mxGeometry x="141" y="91" width="30" height="25" as="geometry" />
        </mxCell>
        <mxCell id="sRjg3EX3xUOvvjhrIUut-48" value="" style="endArrow=none;html=1;rounded=0;" parent="sRjg3EX3xUOvvjhrIUut-145" edge="1">
          <mxGeometry width="50" height="50" relative="1" as="geometry">
            <mxPoint x="20" y="141" as="sourcePoint" />
            <mxPoint x="20" y="87" as="targetPoint" />
          </mxGeometry>
        </mxCell>
        <mxCell id="sRjg3EX3xUOvvjhrIUut-49" value="" style="ellipse;whiteSpace=wrap;html=1;aspect=fixed;container=0;" parent="sRjg3EX3xUOvvjhrIUut-145" vertex="1">
          <mxGeometry x="18" y="84" width="4" height="4" as="geometry" />
        </mxCell>
        <mxCell id="sRjg3EX3xUOvvjhrIUut-51" value="" style="endArrow=classic;html=1;rounded=0;strokeColor=#00CC00;strokeWidth=1;endSize=2;" parent="sRjg3EX3xUOvvjhrIUut-145" edge="1">
          <mxGeometry width="50" height="50" relative="1" as="geometry">
            <mxPoint x="20" y="141" as="sourcePoint" />
            <mxPoint x="20" y="103" as="targetPoint" />
          </mxGeometry>
        </mxCell>
        <mxCell id="sRjg3EX3xUOvvjhrIUut-52" value="" style="endArrow=classic;html=1;rounded=0;strokeColor=#3333FF;strokeWidth=1;endSize=2;" parent="sRjg3EX3xUOvvjhrIUut-145" edge="1">
          <mxGeometry width="50" height="50" relative="1" as="geometry">
            <mxPoint x="20" y="141" as="sourcePoint" />
            <mxPoint x="54" y="109" as="targetPoint" />
          </mxGeometry>
        </mxCell>
        <mxCell id="sRjg3EX3xUOvvjhrIUut-55" value="\(O_B\)" style="text;html=1;align=center;verticalAlign=middle;whiteSpace=wrap;rounded=0;container=0;" parent="sRjg3EX3xUOvvjhrIUut-145" vertex="1">
          <mxGeometry x="1" y="121" width="13" height="14" as="geometry" />
        </mxCell>
        <mxCell id="sRjg3EX3xUOvvjhrIUut-56" value="\(X_B\)" style="text;html=1;align=center;verticalAlign=middle;whiteSpace=wrap;rounded=0;container=0;" parent="sRjg3EX3xUOvvjhrIUut-145" vertex="1">
          <mxGeometry x="62" y="121" width="11" height="15" as="geometry" />
        </mxCell>
        <mxCell id="sRjg3EX3xUOvvjhrIUut-57" value="\(Y_B\)" style="text;html=1;align=center;verticalAlign=middle;whiteSpace=wrap;rounded=0;container=0;" parent="sRjg3EX3xUOvvjhrIUut-145" vertex="1">
          <mxGeometry x="36" y="93" width="60" height="30" as="geometry" />
        </mxCell>
        <mxCell id="sRjg3EX3xUOvvjhrIUut-58" value="\(Z_B\)" style="text;html=1;align=center;verticalAlign=middle;whiteSpace=wrap;rounded=0;container=0;" parent="sRjg3EX3xUOvvjhrIUut-145" vertex="1">
          <mxGeometry x="26" y="99" width="18" height="11" as="geometry" />
        </mxCell>
        <mxCell id="sRjg3EX3xUOvvjhrIUut-60" value="" style="ellipse;whiteSpace=wrap;html=1;aspect=fixed;container=0;" parent="sRjg3EX3xUOvvjhrIUut-145" vertex="1">
          <mxGeometry x="53" y="46" width="4" height="4" as="geometry" />
        </mxCell>
        <mxCell id="sRjg3EX3xUOvvjhrIUut-62" value="" style="endArrow=none;html=1;rounded=0;entryX=0;entryY=1;entryDx=0;entryDy=0;exitX=1;exitY=0;exitDx=0;exitDy=0;" parent="sRjg3EX3xUOvvjhrIUut-145" source="sRjg3EX3xUOvvjhrIUut-49" target="sRjg3EX3xUOvvjhrIUut-60" edge="1">
          <mxGeometry width="50" height="50" relative="1" as="geometry">
            <mxPoint x="6" y="77" as="sourcePoint" />
            <mxPoint x="39" y="41" as="targetPoint" />
          </mxGeometry>
        </mxCell>
        <mxCell id="sRjg3EX3xUOvvjhrIUut-63" value="" style="ellipse;whiteSpace=wrap;html=1;aspect=fixed;container=0;" parent="sRjg3EX3xUOvvjhrIUut-145" vertex="1">
          <mxGeometry x="106" y="39" width="4" height="4" as="geometry" />
        </mxCell>
        <mxCell id="sRjg3EX3xUOvvjhrIUut-64" value="" style="endArrow=none;html=1;rounded=0;entryX=0;entryY=0.5;entryDx=0;entryDy=0;exitX=1;exitY=0;exitDx=0;exitDy=0;" parent="sRjg3EX3xUOvvjhrIUut-145" source="sRjg3EX3xUOvvjhrIUut-60" target="sRjg3EX3xUOvvjhrIUut-63" edge="1">
          <mxGeometry width="50" height="50" relative="1" as="geometry">
            <mxPoint x="56" y="30" as="sourcePoint" />
            <mxPoint x="105" y="23" as="targetPoint" />
          </mxGeometry>
        </mxCell>
        <mxCell id="sRjg3EX3xUOvvjhrIUut-65" value="" style="endArrow=none;html=1;rounded=0;exitX=1;exitY=0.5;exitDx=0;exitDy=0;entryX=0;entryY=0;entryDx=0;entryDy=0;" parent="sRjg3EX3xUOvvjhrIUut-145" source="sRjg3EX3xUOvvjhrIUut-63" target="sRjg3EX3xUOvvjhrIUut-39" edge="1">
          <mxGeometry width="50" height="50" relative="1" as="geometry">
            <mxPoint x="131" y="65" as="sourcePoint" />
            <mxPoint x="181" y="15" as="targetPoint" />
          </mxGeometry>
        </mxCell>
        <mxCell id="sRjg3EX3xUOvvjhrIUut-66" value="&lt;font face=&quot;宋体&quot; style=&quot;font-size: 14px;&quot;&gt;执行器&lt;/font&gt;" style="text;html=1;align=center;verticalAlign=middle;whiteSpace=wrap;rounded=0;container=0;" parent="sRjg3EX3xUOvvjhrIUut-145" vertex="1">
          <mxGeometry x="90" y="60" width="50" height="11" as="geometry" />
        </mxCell>
        <mxCell id="sRjg3EX3xUOvvjhrIUut-67" value="&lt;font face=&quot;宋体&quot; style=&quot;font-size: 14px;&quot;&gt;机器人&lt;/font&gt;" style="text;html=1;align=center;verticalAlign=middle;whiteSpace=wrap;rounded=0;container=0;" parent="sRjg3EX3xUOvvjhrIUut-145" vertex="1">
          <mxGeometry x="20" y="10" width="55" height="31" as="geometry" />
        </mxCell>
        <mxCell id="sRjg3EX3xUOvvjhrIUut-68" value="&lt;font style=&quot;font-size: 14px;&quot; face=&quot;Times New Roman&quot;&gt;RGB-D&lt;/font&gt;&lt;div style=&quot;line-height: 100%; font-size: 14px;&quot;&gt;&lt;font face=&quot;宋体&quot;&gt;相机&lt;/font&gt;&lt;/div&gt;" style="text;html=1;align=center;verticalAlign=middle;whiteSpace=wrap;rounded=0;spacing=1;spacingTop=0;container=0;" parent="sRjg3EX3xUOvvjhrIUut-145" vertex="1">
          <mxGeometry x="185" y="60" width="47" height="11" as="geometry" />
        </mxCell>
        <mxCell id="sRjg3EX3xUOvvjhrIUut-6" value="" style="endArrow=none;html=1;rounded=0;" parent="sRjg3EX3xUOvvjhrIUut-145" edge="1">
          <mxGeometry width="50" height="50" relative="1" as="geometry">
            <mxPoint y="141" as="sourcePoint" />
            <mxPoint x="220" y="141" as="targetPoint" />
          </mxGeometry>
        </mxCell>
        <mxCell id="sRjg3EX3xUOvvjhrIUut-7" value="" style="endArrow=none;html=1;rounded=0;" parent="sRjg3EX3xUOvvjhrIUut-145" edge="1">
          <mxGeometry width="50" height="50" relative="1" as="geometry">
            <mxPoint y="151" as="sourcePoint" />
            <mxPoint x="10" y="141" as="targetPoint" />
          </mxGeometry>
        </mxCell>
        <mxCell id="sRjg3EX3xUOvvjhrIUut-8" value="" style="endArrow=none;html=1;rounded=0;" parent="sRjg3EX3xUOvvjhrIUut-145" edge="1">
          <mxGeometry width="50" height="50" relative="1" as="geometry">
            <mxPoint x="60" y="151" as="sourcePoint" />
            <mxPoint x="70" y="141" as="targetPoint" />
          </mxGeometry>
        </mxCell>
        <mxCell id="sRjg3EX3xUOvvjhrIUut-9" value="" style="endArrow=none;html=1;rounded=0;" parent="sRjg3EX3xUOvvjhrIUut-145" edge="1">
          <mxGeometry width="50" height="50" relative="1" as="geometry">
            <mxPoint x="20" y="151" as="sourcePoint" />
            <mxPoint x="30" y="141" as="targetPoint" />
          </mxGeometry>
        </mxCell>
        <mxCell id="sRjg3EX3xUOvvjhrIUut-10" value="" style="endArrow=none;html=1;rounded=0;" parent="sRjg3EX3xUOvvjhrIUut-145" edge="1">
          <mxGeometry width="50" height="50" relative="1" as="geometry">
            <mxPoint x="80" y="151" as="sourcePoint" />
            <mxPoint x="90" y="141" as="targetPoint" />
          </mxGeometry>
        </mxCell>
        <mxCell id="sRjg3EX3xUOvvjhrIUut-11" value="" style="endArrow=none;html=1;rounded=0;" parent="sRjg3EX3xUOvvjhrIUut-145" edge="1">
          <mxGeometry width="50" height="50" relative="1" as="geometry">
            <mxPoint x="40" y="151" as="sourcePoint" />
            <mxPoint x="50" y="141" as="targetPoint" />
          </mxGeometry>
        </mxCell>
        <mxCell id="sRjg3EX3xUOvvjhrIUut-12" value="" style="endArrow=none;html=1;rounded=0;" parent="sRjg3EX3xUOvvjhrIUut-145" edge="1">
          <mxGeometry width="50" height="50" relative="1" as="geometry">
            <mxPoint x="100" y="151" as="sourcePoint" />
            <mxPoint x="110" y="141" as="targetPoint" />
          </mxGeometry>
        </mxCell>
        <mxCell id="sRjg3EX3xUOvvjhrIUut-13" value="" style="endArrow=none;html=1;rounded=0;" parent="sRjg3EX3xUOvvjhrIUut-145" edge="1">
          <mxGeometry width="50" height="50" relative="1" as="geometry">
            <mxPoint x="120" y="151" as="sourcePoint" />
            <mxPoint x="130" y="141" as="targetPoint" />
          </mxGeometry>
        </mxCell>
        <mxCell id="sRjg3EX3xUOvvjhrIUut-14" value="" style="endArrow=none;html=1;rounded=0;" parent="sRjg3EX3xUOvvjhrIUut-145" edge="1">
          <mxGeometry width="50" height="50" relative="1" as="geometry">
            <mxPoint x="140" y="151" as="sourcePoint" />
            <mxPoint x="150" y="141" as="targetPoint" />
          </mxGeometry>
        </mxCell>
        <mxCell id="sRjg3EX3xUOvvjhrIUut-15" value="" style="endArrow=none;html=1;rounded=0;" parent="sRjg3EX3xUOvvjhrIUut-145" edge="1">
          <mxGeometry width="50" height="50" relative="1" as="geometry">
            <mxPoint x="160" y="151" as="sourcePoint" />
            <mxPoint x="170" y="141" as="targetPoint" />
          </mxGeometry>
        </mxCell>
        <mxCell id="sRjg3EX3xUOvvjhrIUut-16" value="" style="endArrow=none;html=1;rounded=0;" parent="sRjg3EX3xUOvvjhrIUut-145" edge="1">
          <mxGeometry width="50" height="50" relative="1" as="geometry">
            <mxPoint x="180" y="151" as="sourcePoint" />
            <mxPoint x="190" y="141" as="targetPoint" />
          </mxGeometry>
        </mxCell>
        <mxCell id="sRjg3EX3xUOvvjhrIUut-17" value="" style="endArrow=none;html=1;rounded=0;" parent="sRjg3EX3xUOvvjhrIUut-145" edge="1">
          <mxGeometry width="50" height="50" relative="1" as="geometry">
            <mxPoint x="200" y="151" as="sourcePoint" />
            <mxPoint x="210" y="141" as="targetPoint" />
          </mxGeometry>
        </mxCell>
        <mxCell id="sRjg3EX3xUOvvjhrIUut-19" value="" style="endArrow=none;html=1;rounded=0;" parent="sRjg3EX3xUOvvjhrIUut-145" edge="1">
          <mxGeometry width="50" height="50" relative="1" as="geometry">
            <mxPoint x="10" y="151" as="sourcePoint" />
            <mxPoint x="20" y="141" as="targetPoint" />
          </mxGeometry>
        </mxCell>
        <mxCell id="sRjg3EX3xUOvvjhrIUut-20" value="" style="endArrow=none;html=1;rounded=0;" parent="sRjg3EX3xUOvvjhrIUut-145" edge="1">
          <mxGeometry width="50" height="50" relative="1" as="geometry">
            <mxPoint x="30" y="151" as="sourcePoint" />
            <mxPoint x="40" y="141" as="targetPoint" />
          </mxGeometry>
        </mxCell>
        <mxCell id="sRjg3EX3xUOvvjhrIUut-21" value="" style="endArrow=none;html=1;rounded=0;" parent="sRjg3EX3xUOvvjhrIUut-145" edge="1">
          <mxGeometry width="50" height="50" relative="1" as="geometry">
            <mxPoint x="50" y="151" as="sourcePoint" />
            <mxPoint x="60" y="141" as="targetPoint" />
          </mxGeometry>
        </mxCell>
        <mxCell id="sRjg3EX3xUOvvjhrIUut-22" value="" style="endArrow=none;html=1;rounded=0;" parent="sRjg3EX3xUOvvjhrIUut-145" edge="1">
          <mxGeometry width="50" height="50" relative="1" as="geometry">
            <mxPoint x="70" y="151" as="sourcePoint" />
            <mxPoint x="80" y="141" as="targetPoint" />
          </mxGeometry>
        </mxCell>
        <mxCell id="sRjg3EX3xUOvvjhrIUut-23" value="" style="endArrow=none;html=1;rounded=0;" parent="sRjg3EX3xUOvvjhrIUut-145" edge="1">
          <mxGeometry width="50" height="50" relative="1" as="geometry">
            <mxPoint x="90" y="151" as="sourcePoint" />
            <mxPoint x="100" y="141" as="targetPoint" />
          </mxGeometry>
        </mxCell>
        <mxCell id="sRjg3EX3xUOvvjhrIUut-24" value="" style="endArrow=none;html=1;rounded=0;" parent="sRjg3EX3xUOvvjhrIUut-145" edge="1">
          <mxGeometry width="50" height="50" relative="1" as="geometry">
            <mxPoint x="110" y="151" as="sourcePoint" />
            <mxPoint x="120" y="141" as="targetPoint" />
          </mxGeometry>
        </mxCell>
        <mxCell id="sRjg3EX3xUOvvjhrIUut-25" value="" style="endArrow=none;html=1;rounded=0;" parent="sRjg3EX3xUOvvjhrIUut-145" edge="1">
          <mxGeometry width="50" height="50" relative="1" as="geometry">
            <mxPoint x="130" y="151" as="sourcePoint" />
            <mxPoint x="140" y="141" as="targetPoint" />
          </mxGeometry>
        </mxCell>
        <mxCell id="sRjg3EX3xUOvvjhrIUut-26" value="" style="endArrow=none;html=1;rounded=0;" parent="sRjg3EX3xUOvvjhrIUut-145" edge="1">
          <mxGeometry width="50" height="50" relative="1" as="geometry">
            <mxPoint x="150" y="151" as="sourcePoint" />
            <mxPoint x="160" y="141" as="targetPoint" />
          </mxGeometry>
        </mxCell>
        <mxCell id="sRjg3EX3xUOvvjhrIUut-27" value="" style="endArrow=none;html=1;rounded=0;" parent="sRjg3EX3xUOvvjhrIUut-145" edge="1">
          <mxGeometry width="50" height="50" relative="1" as="geometry">
            <mxPoint x="170" y="151" as="sourcePoint" />
            <mxPoint x="180" y="141" as="targetPoint" />
          </mxGeometry>
        </mxCell>
        <mxCell id="sRjg3EX3xUOvvjhrIUut-28" value="" style="endArrow=none;html=1;rounded=0;" parent="sRjg3EX3xUOvvjhrIUut-145" edge="1">
          <mxGeometry width="50" height="50" relative="1" as="geometry">
            <mxPoint x="190" y="151" as="sourcePoint" />
            <mxPoint x="200" y="141" as="targetPoint" />
          </mxGeometry>
        </mxCell>
        <mxCell id="sRjg3EX3xUOvvjhrIUut-29" value="" style="endArrow=none;html=1;rounded=0;" parent="sRjg3EX3xUOvvjhrIUut-145" edge="1">
          <mxGeometry width="50" height="50" relative="1" as="geometry">
            <mxPoint x="210" y="151" as="sourcePoint" />
            <mxPoint x="220" y="141" as="targetPoint" />
          </mxGeometry>
        </mxCell>
        <mxCell id="sRjg3EX3xUOvvjhrIUut-34" value="" style="endArrow=none;html=1;rounded=0;" parent="sRjg3EX3xUOvvjhrIUut-145" edge="1">
          <mxGeometry width="50" height="50" relative="1" as="geometry">
            <mxPoint x="147" y="71" as="sourcePoint" />
            <mxPoint x="167" y="71" as="targetPoint" />
          </mxGeometry>
        </mxCell>
        <mxCell id="sRjg3EX3xUOvvjhrIUut-36" value="" style="endArrow=none;html=1;rounded=0;" parent="sRjg3EX3xUOvvjhrIUut-145" edge="1">
          <mxGeometry width="50" height="50" relative="1" as="geometry">
            <mxPoint x="147" y="81" as="sourcePoint" />
            <mxPoint x="147" y="71" as="targetPoint" />
          </mxGeometry>
        </mxCell>
        <mxCell id="sRjg3EX3xUOvvjhrIUut-37" value="" style="endArrow=none;html=1;rounded=0;" parent="sRjg3EX3xUOvvjhrIUut-145" edge="1">
          <mxGeometry width="50" height="50" relative="1" as="geometry">
            <mxPoint x="167" y="81" as="sourcePoint" />
            <mxPoint x="167" y="71" as="targetPoint" />
            <Array as="points">
              <mxPoint x="167" y="71" />
            </Array>
          </mxGeometry>
        </mxCell>
        <mxCell id="sRjg3EX3xUOvvjhrIUut-38" value="" style="endArrow=none;html=1;rounded=0;" parent="sRjg3EX3xUOvvjhrIUut-145" edge="1">
          <mxGeometry width="50" height="50" relative="1" as="geometry">
            <mxPoint x="157" y="71" as="sourcePoint" />
            <mxPoint x="157" y="61" as="targetPoint" />
          </mxGeometry>
        </mxCell>
        <mxCell id="sRjg3EX3xUOvvjhrIUut-39" value="" style="ellipse;whiteSpace=wrap;html=1;aspect=fixed;container=0;" parent="sRjg3EX3xUOvvjhrIUut-145" vertex="1">
          <mxGeometry x="155" y="57" width="4" height="4" as="geometry" />
        </mxCell>
        <mxCell id="sRjg3EX3xUOvvjhrIUut-41" value="" style="rounded=0;whiteSpace=wrap;html=1;container=0;" parent="sRjg3EX3xUOvvjhrIUut-145" vertex="1">
          <mxGeometry x="172" y="59" width="10" height="12" as="geometry" />
        </mxCell>
        <mxCell id="sRjg3EX3xUOvvjhrIUut-43" value="" style="endArrow=none;html=1;rounded=0;entryX=0;entryY=0.5;entryDx=0;entryDy=0;" parent="sRjg3EX3xUOvvjhrIUut-145" target="sRjg3EX3xUOvvjhrIUut-41" edge="1">
          <mxGeometry width="50" height="50" relative="1" as="geometry">
            <mxPoint x="157" y="65" as="sourcePoint" />
            <mxPoint x="170" y="45" as="targetPoint" />
          </mxGeometry>
        </mxCell>
        <mxCell id="sRjg3EX3xUOvvjhrIUut-44" value="" style="shape=trapezoid;perimeter=trapezoidPerimeter;whiteSpace=wrap;html=1;fixedSize=1;size=3;container=0;" parent="sRjg3EX3xUOvvjhrIUut-145" vertex="1">
          <mxGeometry x="172" y="71" width="10" height="5" as="geometry" />
        </mxCell>
        <mxCell id="sRjg3EX3xUOvvjhrIUut-69" value="" style="rounded=1;whiteSpace=wrap;html=1;strokeColor=#9673a6;fillColor=#FFFFFF;dashed=1;container=0;" parent="sRjg3EX3xUOvvjhrIUut-145" vertex="1">
          <mxGeometry x="258" y="35" width="165" height="84" as="geometry" />
        </mxCell>
        <mxCell id="sRjg3EX3xUOvvjhrIUut-70" value="\(O_{uv}\)" style="text;html=1;align=center;verticalAlign=middle;whiteSpace=wrap;rounded=0;container=0;" parent="sRjg3EX3xUOvvjhrIUut-145" vertex="1">
          <mxGeometry x="264" y="44" width="22" height="14" as="geometry" />
        </mxCell>
        <mxCell id="sRjg3EX3xUOvvjhrIUut-72" value="" style="endArrow=classic;html=1;rounded=0;exitX=1;exitY=1;exitDx=0;exitDy=0;endSize=1;" parent="sRjg3EX3xUOvvjhrIUut-145" source="sRjg3EX3xUOvvjhrIUut-70" edge="1">
          <mxGeometry width="50" height="50" relative="1" as="geometry">
            <mxPoint x="299" y="102" as="sourcePoint" />
            <mxPoint x="320" y="58" as="targetPoint" />
          </mxGeometry>
        </mxCell>
        <mxCell id="sRjg3EX3xUOvvjhrIUut-74" value="" style="endArrow=classic;html=1;rounded=0;exitX=1;exitY=1;exitDx=0;exitDy=0;endSize=1;" parent="sRjg3EX3xUOvvjhrIUut-145" source="sRjg3EX3xUOvvjhrIUut-70" edge="1">
          <mxGeometry width="50" height="50" relative="1" as="geometry">
            <mxPoint x="283" y="150" as="sourcePoint" />
            <mxPoint x="286" y="80" as="targetPoint" />
          </mxGeometry>
        </mxCell>
        <mxCell id="sRjg3EX3xUOvvjhrIUut-75" value="\(u\)" style="text;html=1;align=center;verticalAlign=middle;whiteSpace=wrap;rounded=0;container=0;" parent="sRjg3EX3xUOvvjhrIUut-145" vertex="1">
          <mxGeometry x="310" y="45" width="12" height="12" as="geometry" />
        </mxCell>
        <mxCell id="sRjg3EX3xUOvvjhrIUut-76" value="\(v\)" style="text;html=1;align=center;verticalAlign=middle;whiteSpace=wrap;rounded=0;container=0;" parent="sRjg3EX3xUOvvjhrIUut-145" vertex="1">
          <mxGeometry x="270" y="70" width="12" height="12" as="geometry" />
        </mxCell>
        <mxCell id="sRjg3EX3xUOvvjhrIUut-79" value="" style="shape=cube;whiteSpace=wrap;html=1;boundedLbl=1;backgroundOutline=1;darkOpacity=0.05;darkOpacity2=0.1;direction=south;fillColor=#bac8d3;strokeColor=#a7b4bd;strokeWidth=1;container=0;" parent="sRjg3EX3xUOvvjhrIUut-145" vertex="1">
          <mxGeometry x="289" y="88" width="120" height="19" as="geometry" />
        </mxCell>
        <mxCell id="sRjg3EX3xUOvvjhrIUut-80" value="" style="shape=cylinder3;whiteSpace=wrap;html=1;boundedLbl=1;backgroundOutline=1;size=2.5283018867924625;direction=west;rotation=60;fillColor=#FFFFFF;strokeColor=#ae4132;dashed=1;container=0;" parent="sRjg3EX3xUOvvjhrIUut-145" vertex="1">
          <mxGeometry x="317" y="78" width="10" height="30" as="geometry" />
        </mxCell>
        <mxCell id="sRjg3EX3xUOvvjhrIUut-82" value="&lt;span style=&quot;font-size: 14px;&quot;&gt;&lt;font face=&quot;宋体&quot;&gt;抓取位姿检测&lt;/font&gt;&lt;/span&gt;" style="text;html=1;align=center;verticalAlign=middle;whiteSpace=wrap;rounded=0;container=0;" parent="sRjg3EX3xUOvvjhrIUut-145" vertex="1">
          <mxGeometry x="330" y="40" width="87" height="15" as="geometry" />
        </mxCell>
        <mxCell id="sRjg3EX3xUOvvjhrIUut-81" value="" style="shape=cube;whiteSpace=wrap;html=1;boundedLbl=1;backgroundOutline=1;darkOpacity=0.05;darkOpacity2=0.1;direction=south;size=10;fillColor=#e51400;strokeColor=#B20000;fontColor=#ffffff;container=0;" parent="sRjg3EX3xUOvvjhrIUut-145" vertex="1">
          <mxGeometry x="342" y="78" width="30" height="25" as="geometry" />
        </mxCell>
        <mxCell id="sRjg3EX3xUOvvjhrIUut-125" value="" style="ellipse;whiteSpace=wrap;html=1;aspect=fixed;container=0;" parent="sRjg3EX3xUOvvjhrIUut-145" vertex="1">
          <mxGeometry x="348" y="81" width="1" height="1" as="geometry" />
        </mxCell>
        <mxCell id="sRjg3EX3xUOvvjhrIUut-127" value="" style="ellipse;whiteSpace=wrap;html=1;aspect=fixed;container=0;" parent="sRjg3EX3xUOvvjhrIUut-145" vertex="1">
          <mxGeometry x="367" y="81" width="1" height="1" as="geometry" />
        </mxCell>
        <mxCell id="sRjg3EX3xUOvvjhrIUut-88" value="" style="rounded=1;whiteSpace=wrap;html=1;fillColor=#FFFFFF;strokeColor=#82b366;dashed=1;container=0;" parent="sRjg3EX3xUOvvjhrIUut-145" vertex="1">
          <mxGeometry x="455" y="33" width="105" height="190" as="geometry" />
        </mxCell>
        <mxCell id="sRjg3EX3xUOvvjhrIUut-89" value="" style="shape=cube;whiteSpace=wrap;html=1;boundedLbl=1;backgroundOutline=1;darkOpacity=0.05;darkOpacity2=0.1;direction=south;size=10;fillColor=#e51400;strokeColor=#B20000;fontColor=#ffffff;container=0;" parent="sRjg3EX3xUOvvjhrIUut-145" vertex="1">
          <mxGeometry x="521" y="78" width="30" height="25" as="geometry" />
        </mxCell>
        <mxCell id="sRjg3EX3xUOvvjhrIUut-97" value="" style="endArrow=classic;html=1;rounded=0;strokeColor=#FF3333;strokeWidth=1;endSize=2;" parent="sRjg3EX3xUOvvjhrIUut-145" edge="1">
          <mxGeometry width="50" height="50" relative="1" as="geometry">
            <mxPoint x="483" y="114" as="sourcePoint" />
            <mxPoint x="527" y="114" as="targetPoint" />
          </mxGeometry>
        </mxCell>
        <mxCell id="sRjg3EX3xUOvvjhrIUut-98" value="" style="endArrow=classic;html=1;rounded=0;strokeColor=#00CC00;strokeWidth=1;endSize=2;" parent="sRjg3EX3xUOvvjhrIUut-145" edge="1">
          <mxGeometry width="50" height="50" relative="1" as="geometry">
            <mxPoint x="483" y="114" as="sourcePoint" />
            <mxPoint x="483" y="76" as="targetPoint" />
          </mxGeometry>
        </mxCell>
        <mxCell id="sRjg3EX3xUOvvjhrIUut-99" value="" style="endArrow=classic;html=1;rounded=0;strokeColor=#3333FF;strokeWidth=1;endSize=2;" parent="sRjg3EX3xUOvvjhrIUut-145" edge="1">
          <mxGeometry width="50" height="50" relative="1" as="geometry">
            <mxPoint x="483" y="114" as="sourcePoint" />
            <mxPoint x="517" y="82" as="targetPoint" />
          </mxGeometry>
        </mxCell>
        <mxCell id="sRjg3EX3xUOvvjhrIUut-100" value="\(O_B\)" style="text;html=1;align=center;verticalAlign=middle;whiteSpace=wrap;rounded=0;container=0;" parent="sRjg3EX3xUOvvjhrIUut-145" vertex="1">
          <mxGeometry x="467" y="111" width="13" height="14" as="geometry" />
        </mxCell>
        <mxCell id="sRjg3EX3xUOvvjhrIUut-101" value="\(X_B\)" style="text;html=1;align=center;verticalAlign=middle;whiteSpace=wrap;rounded=0;container=0;" parent="sRjg3EX3xUOvvjhrIUut-145" vertex="1">
          <mxGeometry x="515" y="114" width="11" height="15" as="geometry" />
        </mxCell>
        <mxCell id="sRjg3EX3xUOvvjhrIUut-102" value="\(Y_B\)" style="text;html=1;align=center;verticalAlign=middle;whiteSpace=wrap;rounded=0;container=0;" parent="sRjg3EX3xUOvvjhrIUut-145" vertex="1">
          <mxGeometry x="494" y="72" width="19" height="12" as="geometry" />
        </mxCell>
        <mxCell id="sRjg3EX3xUOvvjhrIUut-103" value="\(Z_B\)" style="text;html=1;align=center;verticalAlign=middle;whiteSpace=wrap;rounded=0;container=0;" parent="sRjg3EX3xUOvvjhrIUut-145" vertex="1">
          <mxGeometry x="461" y="75" width="18" height="11" as="geometry" />
        </mxCell>
        <mxCell id="sRjg3EX3xUOvvjhrIUut-105" value="&lt;span style=&quot;font-size: 14px;&quot;&gt;&lt;font face=&quot;宋体&quot;&gt;坐标映射&lt;/font&gt;&lt;/span&gt;" style="text;html=1;align=center;verticalAlign=middle;whiteSpace=wrap;rounded=0;container=0;" parent="sRjg3EX3xUOvvjhrIUut-145" vertex="1">
          <mxGeometry x="482" y="36" width="60" height="30" as="geometry" />
        </mxCell>
        <mxCell id="sRjg3EX3xUOvvjhrIUut-135" value="&lt;font face=&quot;宋体&quot; style=&quot;font-size: 14px;&quot;&gt;抓取规划子系统&lt;/font&gt;" style="text;html=1;align=center;verticalAlign=middle;whiteSpace=wrap;rounded=0;container=0;" parent="sRjg3EX3xUOvvjhrIUut-145" vertex="1">
          <mxGeometry x="453" y="13" width="110" height="12" as="geometry" />
        </mxCell>
        <mxCell id="sRjg3EX3xUOvvjhrIUut-136" value="&lt;span style=&quot;font-size: 14px;&quot;&gt;&lt;font face=&quot;宋体&quot;&gt;路径规划&lt;/font&gt;&lt;/span&gt;" style="text;html=1;align=center;verticalAlign=middle;whiteSpace=wrap;rounded=0;container=0;" parent="sRjg3EX3xUOvvjhrIUut-145" vertex="1">
          <mxGeometry x="467" y="184" width="42" height="30" as="geometry" />
        </mxCell>
        <mxCell id="sRjg3EX3xUOvvjhrIUut-137" value="" style="shape=flexArrow;endArrow=classic;html=1;rounded=0;fillColor=#000000;width=1.1764705882352942;endSize=2;endWidth=5.536332179930796;startSize=2;" parent="sRjg3EX3xUOvvjhrIUut-145" edge="1">
          <mxGeometry width="50" height="50" relative="1" as="geometry">
            <mxPoint x="505" y="132" as="sourcePoint" />
            <mxPoint x="505" y="154" as="targetPoint" />
          </mxGeometry>
        </mxCell>
        <mxCell id="sRjg3EX3xUOvvjhrIUut-138" value="" style="curved=1;endArrow=classic;html=1;rounded=0;strokeWidth=2;endSize=2;startSize=2;" parent="sRjg3EX3xUOvvjhrIUut-145" edge="1">
          <mxGeometry width="50" height="50" relative="1" as="geometry">
            <mxPoint x="494" y="172" as="sourcePoint" />
            <mxPoint x="518" y="177" as="targetPoint" />
            <Array as="points">
              <mxPoint x="504" y="167" />
              <mxPoint x="513" y="171" />
            </Array>
          </mxGeometry>
        </mxCell>
        <mxCell id="sRjg3EX3xUOvvjhrIUut-108" value="" style="endArrow=none;html=1;rounded=0;" parent="sRjg3EX3xUOvvjhrIUut-145" edge="1">
          <mxGeometry width="50" height="50" relative="1" as="geometry">
            <mxPoint x="476" y="179" as="sourcePoint" />
            <mxPoint x="476" y="159" as="targetPoint" />
          </mxGeometry>
        </mxCell>
        <mxCell id="sRjg3EX3xUOvvjhrIUut-109" value="" style="endArrow=none;html=1;rounded=0;" parent="sRjg3EX3xUOvvjhrIUut-145" edge="1">
          <mxGeometry width="50" height="50" relative="1" as="geometry">
            <mxPoint x="486" y="179" as="sourcePoint" />
            <mxPoint x="476" y="179" as="targetPoint" />
          </mxGeometry>
        </mxCell>
        <mxCell id="sRjg3EX3xUOvvjhrIUut-110" value="" style="endArrow=none;html=1;rounded=0;" parent="sRjg3EX3xUOvvjhrIUut-145" edge="1">
          <mxGeometry width="50" height="50" relative="1" as="geometry">
            <mxPoint x="486" y="159" as="sourcePoint" />
            <mxPoint x="476" y="159" as="targetPoint" />
            <Array as="points">
              <mxPoint x="476" y="159" />
            </Array>
          </mxGeometry>
        </mxCell>
        <mxCell id="sRjg3EX3xUOvvjhrIUut-111" value="" style="endArrow=none;html=1;rounded=0;" parent="sRjg3EX3xUOvvjhrIUut-145" edge="1">
          <mxGeometry width="50" height="50" relative="1" as="geometry">
            <mxPoint x="476" y="169" as="sourcePoint" />
            <mxPoint x="466" y="169" as="targetPoint" />
          </mxGeometry>
        </mxCell>
        <mxCell id="sRjg3EX3xUOvvjhrIUut-112" value="" style="ellipse;whiteSpace=wrap;html=1;aspect=fixed;rotation=-90;container=0;" parent="sRjg3EX3xUOvvjhrIUut-145" vertex="1">
          <mxGeometry x="462" y="167" width="4" height="4" as="geometry" />
        </mxCell>
        <mxCell id="sRjg3EX3xUOvvjhrIUut-118" value="" style="endArrow=none;html=1;rounded=0;" parent="sRjg3EX3xUOvvjhrIUut-145" edge="1">
          <mxGeometry width="50" height="50" relative="1" as="geometry">
            <mxPoint x="527" y="177" as="sourcePoint" />
            <mxPoint x="547" y="177" as="targetPoint" />
          </mxGeometry>
        </mxCell>
        <mxCell id="sRjg3EX3xUOvvjhrIUut-119" value="" style="endArrow=none;html=1;rounded=0;" parent="sRjg3EX3xUOvvjhrIUut-145" edge="1">
          <mxGeometry width="50" height="50" relative="1" as="geometry">
            <mxPoint x="527" y="187" as="sourcePoint" />
            <mxPoint x="527" y="177" as="targetPoint" />
          </mxGeometry>
        </mxCell>
        <mxCell id="sRjg3EX3xUOvvjhrIUut-120" value="" style="endArrow=none;html=1;rounded=0;" parent="sRjg3EX3xUOvvjhrIUut-145" edge="1">
          <mxGeometry width="50" height="50" relative="1" as="geometry">
            <mxPoint x="547" y="187" as="sourcePoint" />
            <mxPoint x="547" y="177" as="targetPoint" />
            <Array as="points">
              <mxPoint x="547" y="177" />
            </Array>
          </mxGeometry>
        </mxCell>
        <mxCell id="sRjg3EX3xUOvvjhrIUut-121" value="" style="endArrow=none;html=1;rounded=0;" parent="sRjg3EX3xUOvvjhrIUut-145" edge="1">
          <mxGeometry width="50" height="50" relative="1" as="geometry">
            <mxPoint x="537" y="177" as="sourcePoint" />
            <mxPoint x="537" y="167" as="targetPoint" />
          </mxGeometry>
        </mxCell>
        <mxCell id="sRjg3EX3xUOvvjhrIUut-122" value="" style="ellipse;whiteSpace=wrap;html=1;aspect=fixed;rotation=0;container=0;" parent="sRjg3EX3xUOvvjhrIUut-145" vertex="1">
          <mxGeometry x="535" y="163" width="4" height="4" as="geometry" />
        </mxCell>
        <mxCell id="sRjg3EX3xUOvvjhrIUut-132" value="" style="shape=cube;whiteSpace=wrap;html=1;boundedLbl=1;backgroundOutline=1;darkOpacity=0.05;darkOpacity2=0.1;direction=south;size=10;fillColor=#e51400;strokeColor=#B20000;fontColor=#ffffff;container=0;" parent="sRjg3EX3xUOvvjhrIUut-145" vertex="1">
          <mxGeometry x="519" y="188" width="30" height="25" as="geometry" />
        </mxCell>
        <mxCell id="sRjg3EX3xUOvvjhrIUut-133" value="" style="ellipse;whiteSpace=wrap;html=1;aspect=fixed;container=0;" parent="sRjg3EX3xUOvvjhrIUut-145" vertex="1">
          <mxGeometry x="525" y="191" width="1" height="1" as="geometry" />
        </mxCell>
        <mxCell id="sRjg3EX3xUOvvjhrIUut-134" value="" style="ellipse;whiteSpace=wrap;html=1;aspect=fixed;container=0;" parent="sRjg3EX3xUOvvjhrIUut-145" vertex="1">
          <mxGeometry x="544" y="191" width="1" height="1" as="geometry" />
        </mxCell>
        <mxCell id="sRjg3EX3xUOvvjhrIUut-50" value="" style="endArrow=classic;html=1;rounded=0;strokeColor=#FF3333;strokeWidth=1;endSize=2;" parent="sRjg3EX3xUOvvjhrIUut-145" edge="1">
          <mxGeometry width="50" height="50" relative="1" as="geometry">
            <mxPoint x="20" y="141" as="sourcePoint" />
            <mxPoint x="64" y="141" as="targetPoint" />
          </mxGeometry>
        </mxCell>
      </root>
    </mxGraphModel>
  </diagram>
</mxfile>
